<svg width="118" height="57" viewBox="0 0 118 57" fill="none" xmlns="http://www.w3.org/2000/svg">
<path d="M61.192 23.72C62.5573 23.72 63.7627 23.9867 64.808 24.52C65.8747 25.0533 66.7067 25.8747 67.304 26.984C67.9013 28.072 68.2 29.48 68.2 31.208V41H64.2V31.72C64.2 30.2053 63.8693 29.0747 63.208 28.328C62.5467 27.5813 61.5973 27.208 60.36 27.208C59.4853 27.208 58.7067 27.4 58.024 27.784C57.3627 28.168 56.84 28.7333 56.456 29.48C56.0933 30.2267 55.912 31.176 55.912 32.328V41H51.912V31.72C51.912 30.2053 51.5813 29.0747 50.92 28.328C50.2587 27.5813 49.3093 27.208 48.072 27.208C47.1973 27.208 46.4187 27.4 45.736 27.784C45.0747 28.168 44.552 28.7333 44.168 29.48C43.8053 30.2267 43.624 31.176 43.624 32.328V41H39.624V23.912H43.432V28.456L42.76 27.112C43.336 26.0027 44.168 25.16 45.256 24.584C46.3653 24.008 47.624 23.72 49.032 23.72C50.632 23.72 52.0187 24.1147 53.192 24.904C54.3867 25.6933 55.176 26.888 55.56 28.488L53.992 27.944C54.5467 26.664 55.464 25.64 56.744 24.872C58.024 24.104 59.5067 23.72 61.192 23.72ZM72.5115 41V23.912H76.5115V41H72.5115ZM74.5275 21.096C73.7808 21.096 73.1622 20.8613 72.6715 20.392C72.2022 19.9227 71.9675 19.3573 71.9675 18.696C71.9675 18.0133 72.2022 17.448 72.6715 17C73.1622 16.5307 73.7808 16.296 74.5275 16.296C75.2742 16.296 75.8822 16.52 76.3515 16.968C76.8422 17.3947 77.0875 17.9387 77.0875 18.6C77.0875 19.304 76.8528 19.9013 76.3835 20.392C75.9142 20.8613 75.2955 21.096 74.5275 21.096ZM78.6255 41L86.1455 31.208L86.0815 33.352L78.9135 23.912H83.3615L88.3855 30.632H86.6895L91.7455 23.912H96.0655L88.8335 33.352L88.8655 31.208L96.3535 41H91.8415L86.5615 33.864L88.2255 34.088L83.0415 41H78.6255ZM99.7852 41.224C99.0599 41.224 98.4412 40.9787 97.9292 40.488C97.4172 39.976 97.1612 39.336 97.1612 38.568C97.1612 37.7573 97.4172 37.1173 97.9292 36.648C98.4412 36.1573 99.0599 35.912 99.7852 35.912C100.511 35.912 101.129 36.1573 101.641 36.648C102.153 37.1173 102.409 37.7573 102.409 38.568C102.409 39.336 102.153 39.976 101.641 40.488C101.129 40.9787 100.511 41.224 99.7852 41.224Z" fill="#212429"/>
<path d="M31.636 23.8C31.636 20.44 31.168 18.004 30.232 16.492C29.32 14.98 28.06 14.224 26.452 14.224C24.868 14.224 23.356 14.932 21.916 16.348C20.5 17.74 19.384 19.504 18.568 21.64C17.776 23.776 17.38 25.936 17.38 28.12C17.38 31.12 17.872 33.58 18.856 35.5C19.864 37.42 21.376 38.38 23.392 38.38C25.072 38.38 26.548 37.648 27.82 36.184C29.116 34.696 30.076 32.86 30.7 30.676C31.324 28.492 31.636 26.2 31.636 23.8ZM32.284 36.976C31.204 38.152 29.848 39.1 28.216 39.82C26.608 40.54 24.844 40.9 22.924 40.9C21.004 40.9 19.312 40.468 17.848 39.604C16.408 38.74 15.256 37.588 14.392 36.148C12.664 33.268 11.8 29.908 11.8 26.068C11.8 22.228 12.748 18.808 14.644 15.808C16.564 12.808 19.12 10.912 22.312 10.12C22.504 10.168 22.684 10.264 22.852 10.408C23.044 10.552 23.152 10.708 23.176 10.876C20.08 13.132 18.208 16.204 17.56 20.092C18.568 17.26 20.08 15.052 22.096 13.468C24.136 11.86 26.32 11.056 28.648 11.056C30.976 11.056 32.956 12.064 34.588 14.08C36.244 16.072 37.072 18.964 37.072 22.756C37.072 26.476 36.376 29.824 34.984 32.8C34.264 34.384 33.364 35.776 32.284 36.976Z" fill="#212429"/>
<path d="M117 53.2727V53.2727C79.9817 42.0397 40.3766 42.6697 3.73427 55.0744L1 56" stroke="#212429" stroke-width="2" stroke-linecap="round"/>
</svg>
